<?xml version="1.0" standalone="no"?>
<svg version="1.0" xmlns="http://www.w3.org/2000/svg"
 width="450" height="180" viewBox="0 0 4500 1800"
 preserveAspectRatio="xMidYMid meet">
<g transform="translate(0,1800) scale(1,-1)"
fill="#ffffff" stroke="none">
<path d="M1845 1207 c53 -24 106 -41 128 -41 41 -1 47 -10 16 -26 -27 -15 -65 -6 -157 38 -72 34 -83 37 -172 36 -88 0 -102 -3 -185 -38 -120 -51 -147 -58 -179 -46 -36 13 -33 26 7 26 17 0 80 19 139 42 185 73 258 75 403 9z"/>
<path d="M819 1227 c13 -16 5 -27 -20 -27 -23 0 -29 -20 -29 -96 l0 -64 110 0 110 0 0 74 c0 71 -1 76 -26 88 -15 7 -27 18 -28 23 -2 15 143 19 160 4 17 -14 9 -29 -16 -29 -28 0 -31 -24 -28 -190 l3 -145 28 -13 c47 -23 30 -32 -58 -32 -62 0 -85 3 -85 13 0 7 10 17 23 22 19 9 22 19 25 78 l3 67 -111 0 -111 0 3 -67 c3 -63 5 -69 31 -81 49 -24 31 -33 -60 -30 -58 2 -88 7 -91 16 -2 7 5 12 15 12 39 0 43 18 43 182 0 142 -2 159 -17 165 -27 9 -43 24 -37 34 9 15 150 11 163 -4z"/>
<path d="M2458 1217 c44 -24 65 -72 51 -120 -9 -33 -68 -97 -89 -97 -14 0 77 -118 100 -130 10 -5 26 -7 34 -4 26 10 19 -24 -8 -41 -48 -32 -97 2 -151 103 -24 46 -35 58 -58 60 -40 5 -28 23 25 39 49 14 88 52 88 85 0 30 -28 76 -51 83 -35 12 -91 8 -100 -6 -5 -8 -8 -84 -6 -169 2 -150 3 -155 25 -165 12 -5 22 -16 22 -23 0 -18 -162 -13 -168 6 -2 7 5 12 17 12 11 0 25 9 31 19 11 22 14 300 2 317 -4 6 -15 13 -24 17 -10 3 -18 14 -18 23 0 14 14 16 123 12 92 -3 130 -8 155 -21z"/>
<path d="M2984 1234 c23 -9 20 -34 -4 -34 -13 0 -24 -10 -31 -27 -15 -39 -4 -223 15 -261 28 -55 116 -67 164 -22 31 29 42 82 42 197 0 100 0 102 -26 115 -15 7 -27 18 -28 23 -2 15 123 18 140 4 17 -14 9 -29 -16 -29 -16 0 -18 -12 -22 -132 -3 -103 -8 -141 -22 -170 -59 -121 -266 -107 -304 20 -7 22 -12 94 -12 161 0 96 -3 121 -14 121 -17 0 -38 24 -29 33 8 9 126 9 147 1z"/>
<path d="M3795 1226 c33 -14 35 -18 35 -59 0 -60 -24 -71 -45 -20 -19 46 -30 53 -79 53 -70 0 -100 -55 -53 -97 12 -11 55 -37 95 -58 98 -51 122 -97 87 -165 -28 -54 -107 -79 -190 -60 -59 13 -85 34 -85 67 0 28 17 63 30 63 5 0 16 -15 23 -32 18 -42 37 -58 81 -65 48 -8 86 17 86 55 0 35 -27 61 -106 101 -34 16 -71 42 -83 57 -23 29 -28 83 -11 115 28 51 143 75 215 45z"/>
<path d="M1770 1166 c36 -13 92 -34 125 -46 33 -12 61 -23 63 -25 2 -1 -24 -20 -58 -40 -33 -20 -68 -48 -76 -61 -19 -28 -12 -71 18 -109 l21 -27 -42 -42 c-22 -23 -41 -47 -41 -54 0 -23 -18 -12 -31 21 -8 17 -14 60 -13 93 l1 61 -81 -82 c-67 -68 -89 -84 -128 -94 -64 -15 -86 -14 -135 9 -119 54 -103 220 22 220 58 0 96 -80 58 -122 -31 -34 -93 -11 -93 36 -1 20 -1 20 -11 3 -16 -28 -2 -66 34 -87 76 -47 166 -6 267 120 l28 35 -63 0 c-54 0 -74 6 -148 43 -50 26 -93 42 -104 38 -10 -3 -28 3 -40 14 -28 22 -29 30 -5 30 9 1 40 9 67 19 28 10 82 30 120 45 89 33 159 33 245 2z"/>
<path d="M1756 1101 c-17 -31 -70 -61 -111 -61 -35 0 -79 24 -102 55 -17 24 -21 25 -53 14 -19 -6 -39 -15 -43 -19 -5 -4 22 -23 59 -41 93 -46 184 -47 292 -4 72 29 83 38 60 48 -7 3 -30 12 -50 21 l-37 16 -15 -29z"/>
<path d="M2403 693 c-7 -2 -13 -13 -13 -24 0 -10 6 -19 13 -19 9 0 9 -2 0 -8 -6 -4 -13 -21 -16 -37 l-4 -30 -2 33 c0 17 -6 32 -13 32 -9 0 -9 3 0 12 7 7 12 20 12 30 0 11 7 18 18 17 10 0 12 -3 5 -6z"/>
<path d="M2848 611 l-1 -36 -4 33 c-5 40 -25 38 -34 -4 l-7 -29 -1 33 c-1 39 -31 46 -31 7 0 -14 -4 -25 -10 -25 -5 0 -10 13 -10 29 0 33 13 39 68 33 30 -4 32 -7 30 -41z"/>
<path d="M1829 718 c18 -21 -4 -60 -30 -53 -14 4 -19 0 -19 -14 0 -10 -4 -19 -10 -19 -5 0 -10 23 -10 50 0 48 1 50 29 50 16 0 34 -6 40 -14z"/>
<path d="M2050 703 c0 -23 -5 -30 -27 -36 -20 -5 -31 -2 -40 11 -19 25 1 54 37 54 26 0 30 -4 30 -29z"/>
<path d="M2223 725 c-7 -2 -13 -16 -13 -29 0 -13 -5 -24 -10 -24 -6 0 -9 14 -8 30 2 23 7 30 23 29 11 0 14 -3 8 -6z"/>
<path d="M2566 683 c6 -19 31 3 37 32 3 13 5 8 6 -14 1 -33 -1 -36 -26 -35 -25 1 -28 5 -30 36 -1 19 1 26 3 15 3 -11 7 -26 10 -34z"/>
</g>
</svg>
