<svg xmlns="http://www.w3.org/2000/svg" viewBox="60 100 330 220" fill="none">
  <defs>
    <clipPath id="c">
      <path d="M 68 104.367188 L 382 104.367188 L 382 161 L 68 161 Z M 68 104.367188 " clip-rule="nonzero"/>
    </clipPath>
  </defs>
  <path fill="#C9A84C" d="M 140.648438 174.519531 C 147.765625 171.152344 179.484375 160.777344 180.25 160.386719 C 184.09375 176.917969 203.027344 195.28125 226.386719 195.28125 C 245.324219 195.28125 262.53125 187.878906 272.046875 174.035156 C 274.453125 170.476562 278.101562 162.789062 279.160156 158.558594 C 292.902344 159.714844 316.550781 174.421875 325.300781 176.441406 C 324.335938 179.902344 323.472656 179.613281 315.878906 182.980469 C 303.480469 188.554688 296.269531 192.398438 282.527344 197.6875 L 257.730469 204.894531 C 212.835938 213.933594 195.441406 206.242188 158.523438 186.824219 C 153.140625 184.039062 143.816406 179.328125 140.644531 174.519531 Z M 87.875 171.734375 C 88.554688 178.753906 90.953125 172.882812 102.679688 186.152344 C 112.578125 197.304688 112.863281 186.824219 123.726562 186.824219 C 133.242188 186.824219 143.816406 197.972656 157.757812 203.644531 C 179.578125 212.394531 191.5 224.5 224.464844 224.5 C 234.753906 224.5 240.519531 221.617188 249.9375 221.617188 C 249.84375 227.957031 247.53125 226.035156 241.09375 234.398438 C 231.578125 246.605469 222.449219 259.394531 209.855469 269.101562 L 198.320312 279.285156 C 195.050781 282.078125 189.285156 285.921875 185.25 287.941406 C 167.464844 296.59375 149.390625 300.820312 130.265625 291.402344 C 119.5 286.019531 106.90625 278.425781 107.773438 262.273438 C 108.253906 254.875 110.757812 246.898438 117.097656 245.167969 C 113.0625 253.628906 118.445312 271.886719 135.839844 275.441406 C 149.007812 278.226562 163.238281 266.503906 163.238281 253.621094 C 163.238281 242.375 161.890625 234.105469 153.140625 226.128906 C 136.320312 210.464844 105.082031 214.882812 93.253906 236.417969 C 79.027344 262.371094 89.027344 289.574219 111.421875 305.4375 C 116.519531 308.992188 121.996094 311.402344 128.722656 313.609375 C 155.253906 322.265625 190.050781 314.671875 211.578125 295.347656 C 213.023438 294 213.40625 293.328125 214.945312 292.171875 C 224.746094 284.195312 232.148438 275.734375 240.320312 266.605469 L 255.316406 249.6875 C 259.257812 245.746094 264.640625 239.5 268.773438 236.710938 C 268.484375 251.609375 260.507812 258.148438 265.117188 280.925781 C 266.464844 287.660156 268.101562 295.539062 270.40625 301.980469 C 272.425781 307.652344 275.402344 316.210938 280.980469 317.75 C 285.6875 314.574219 282.808594 314.191406 287.902344 304.867188 C 298.289062 285.832031 317.796875 283.527344 317.796875 272.472656 C 317.796875 268.246094 315.109375 266.609375 313.089844 264.011719 C 310.6875 261.027344 308.765625 259.683594 306.648438 256.324219 C 299.628906 245.652344 298.957031 239.308594 298.957031 227.292969 C 298.957031 205.664062 324.335938 197.105469 344.617188 183.554688 C 346.730469 182.113281 346.730469 181.921875 349.136719 180.476562 C 354.808594 177.015625 359.714844 175.1875 362.019531 170.769531 C 356.15625 167.984375 347.503906 169.804688 328.472656 161.925781 C 305.304688 152.21875 299.632812 145.296875 268.203125 137.417969 C 250.417969 132.996094 242.632812 132.128906 223.601562 132.128906 C 176.117188 132.128906 141.320312 167.308594 87.871094 171.734375 Z M 87.875 171.734375 " fill-opacity="1" fill-rule="evenodd"/>
  <g clip-path="url(#c)">
    <path fill="#C9A84C" d="M 68.167969 149.140625 C 68.167969 154.621094 85.46875 160.386719 92.582031 160.386719 C 107.195312 160.386719 141.128906 144.621094 156.699219 137.800781 C 176.691406 128.859375 198.609375 121.746094 224.65625 119.152344 C 268.683594 114.636719 294.441406 133.761719 325.585938 145.972656 C 340.292969 151.835938 357.3125 161.738281 373.558594 153.085938 C 375.769531 151.835938 377.113281 150.589844 378.84375 148.957031 C 381.152344 146.648438 381.726562 146.839844 381.828125 142.511719 C 366.738281 142.511719 366.832031 147.703125 340.492188 137.703125 C 297.425781 121.265625 276.375 98.871094 223.410156 105.59375 C 174.386719 111.847656 167.273438 118.761719 126.710938 135.105469 C 111.710938 141.160156 94.601562 149.8125 77.589844 147.121094 C 74.222656 146.644531 68.167969 144.339844 68.167969 149.140625 Z M 68.167969 149.140625 " fill-opacity="1" fill-rule="evenodd"/>
  </g>
</svg>
